<?xml version="1.0" encoding="utf-8"?>
<!-- Generator: Adobe Illustrator 26.3.1, SVG Export Plug-In . SVG Version: 6.00 Build 0)  -->
<svg version="1.1" xmlns="http://www.w3.org/2000/svg" xmlns:xlink="http://www.w3.org/1999/xlink" x="0px" y="0px"
	 viewBox="0 0 1500 1500" style="enable-background:new 0 0 1500 1500;" xml:space="preserve">
<style type="text/css">
	.st0{fill:url(#SVGID_1_);}
</style>
<g id="Background">
</g>
<g id="Layer_1">
	<linearGradient id="SVGID_1_" gradientUnits="userSpaceOnUse" x1="244.26" y1="750.7625" x2="1255.7839" y2="750.7625">
		<stop  offset="0" style="stop-color:#B8B1E4"/>
		<stop  offset="1" style="stop-color:#E291A4"/>
	</linearGradient>
	<path class="st0" d="M469.56,670.27c-11.94,6.38-22.87,13.65-33.57,21.27c-5.29,3.77-10.33,7.91-16.54,10.15
		c-5.64,2.03-11.3,2.49-15.91-2.04c-4.56-4.49-4.43-10.23-2.58-15.89c3.34-10.23,10.87-17.42,18.45-24.45
		c35.73-33.16,77.89-54.87,124.04-69.52c33.78-10.73,68.23-18.08,103.49-21.58c7.91-0.78,15.95-1.47,23.78,1.13
		c12.46,4.13,21.99,20.73,19.5,33.61c-1.29,6.65-5.46,10.5-11.32,12.88c-5.12,2.08-10.45,3.12-16.05,3.3
		c-30.52,0.95-60.78,4.02-90.44,11.71c-2.15,0.56-4.1,1.2-5.65,2.9c-6.95,7.63-13.77,15.38-20.96,22.78
		c-12.35,12.7-20.64,28.15-29.55,43.16c-6.29,10.61-11.56,21.77-16.54,33.06c-1.13,2.55-2.12,5.17-3.19,7.77
		c2.09,1.08,3.62,0.14,5.15-0.32c16.92-5.14,34.15-8.95,51.62-11.69c6.2-0.97,12.31-0.53,18.3,1.24
		c8.72,2.58,14.13,9.59,14.38,18.35c0.2,7.22-4.61,12.94-13.24,16.27c-7.7,2.97-15.78,4.15-23.84,5.38
		c-21.33,3.27-41.91,9.32-62.29,16.24c-4.58,1.55-6.97,4.21-8.14,8.99c-5.18,21.22-9.48,42.58-11.22,64.39
		c-0.15,1.88-1.11,4.36,0.92,5.53c1.8,1.04,3.3-1.04,4.86-1.85c27.2-14.28,55.6-25.77,84.3-36.59c11.85-4.47,23.95-8.31,35.61-13.2
		c10.65-4.46,17.85,0.52,22.56,7.11c5.76,8.05,6.87,17.3,5.1,26.75c-1.14,6.11-5.12,10.25-11.19,12.34
		c-29.93,10.29-59.92,20.44-89.35,32.13c-46.13,18.32-90.66,39.65-130.02,70.48c-5.37,4.21-10.5,8.73-15.71,13.14
		c-5.94,5.04-11.16,4.38-15.55-2.02c-5.5-8.02-5.28-15.96,0.62-22.9c14.16-16.64,29.12-32.5,46.65-45.66
		c8.52-6.39,17.51-12.16,26.35-18.11c1.93-1.3,3.48-2.36,2.7-5.12c-5.89-20.9-3.83-42.33-4.11-63.6c-0.02-1.33,0-2.67,0.01-4
		c0.02-3.02-1.45-3.84-4.18-2.86c-0.78,0.28-1.59,0.51-2.39,0.74c-8.56,2.4-13.02,1.14-16.64-4.71c-4.04-6.53-3.48-16.31,1.28-21.58
		c5.78-6.41,12.9-11.13,20.47-14.97c5.97-3.03,9.03-7.04,10.53-13.78c6.33-28.56,16.29-55.94,28.86-82.35
		C469.38,673.25,470.22,672.31,469.56,670.27z M924,673.14c11.22-24.55,22.63-49,35.18-72.9c6.57-12.53,14.08-24.61,18.38-38.22
		c3.88-12.3,0.87-23.14-7.69-32.35c-9.18-9.87-21.41-8.62-28.74,2.62c-3.64,5.58-7.2,11.22-9.89,17.35
		c-15.51,35.21-31.11,70.34-42.9,107.1c-13.23,41.24-27.86,82.05-36.64,124.58c-3.16,15.29-7.62,30.43-6.77,46.33
		c0.2,3.73,0.68,7.33,2.87,10.45c3.16,4.49,6.8,4.45,9.89-0.07c3.15-4.6,5.06-9.78,6.46-15.1c7.58-28.77,18.88-56.18,30.34-83.53
		c2.58-6.14,5.12-12.31,8.07-18.28c2.42-4.91,5.98-5.11,9.13-0.77c2.14,2.96,4.16,6.03,5.43,9.51
		c5.18,14.25,10.07,28.61,15.63,42.71c9.7,24.61,18.24,49.77,33.01,72.09c14.42,21.8,32.92,38.19,58.4,46.01
		c16.61,5.1,33.53,7.14,50.8,6.36c20-0.9,38.36-6.28,53.48-20.28c5.86-5.42,7.73-16.08,3.81-24.02c-3.43-6.96-8.92-8.78-18.81-6.69
		c-15.47,3.27-30.9,6.5-46.95,5.09c-28.5-2.5-48.96-17.89-64.39-40.58c-7.86-11.56-12.69-24.89-18.02-37.84
		c-9.8-23.84-17.05-48.83-31.91-70.36c-1.73-2.5-1.45-4.04,1.48-5.38c6.66-3.05,13.2-6.36,19.8-9.55
		c24.48-11.83,48.18-25.01,70.29-40.93c29.98-21.59,56.31-46.77,77.13-77.49c9.24-13.64,4.76-34-9.44-41.74
		c-7.98-4.35-17.09-2.85-21.4,3.93c-19.78,31.08-46.14,55.91-74.93,78.28c-24.21,18.8-49.26,36.48-74.36,54.08
		c-5.52,3.87-10.91,7.94-16.27,11.86C923.45,674.39,923.72,673.74,924,673.14z M775.2,796.79c-2.14-20.34-1.36-40.55,2.55-60.63
		c2.23-11.47,5.68-22.59,9.2-33.72c2.84-8.98,0.33-17.05-5.89-24.04c-5.84-6.56-12.55-4.15-19.41-2.23
		c-9.78,2.74-19.67,5.1-29.47,7.78c-3.77,1.03-5.27,0.51-4.34-3.88c2.08-9.81,3.08-19.77,2.18-29.79
		c-1.15-12.76-6.39-23.36-18.52-28.76c-12.55-5.59-24.52-2.58-34.43,6.16c-15.7,13.86-25.84,30.96-28.51,52.27
		c-2.07,16.57,7.78,43.06,32.73,46.74c4.14,0.61,4.37,2.21,3.15,5.61c-10.17,28.38-20.28,56.78-30.3,85.21
		c-7.37,20.89-14.32,41.93-20.19,63.3c-1.21,4.41-0.49,8.27,2.3,11.72c2.86,3.53,6.07,3.27,8.31-0.68c1.97-3.48,3.8-7.03,5.55-10.63
		c24.19-49.95,46.46-100.71,65.02-153.05c0.95-2.69,2.43-3.91,5.29-4.39c8.04-1.35,16.06-2.92,24.02-4.67
		c3.95-0.87,4.58,0.32,3.85,4.03c-5.12,25.84-5.6,51.93-3.23,78.07c1,10.99,3.42,21.68,9.64,31.2c8.77,13.41,24.72,16.39,36.66,6.59
		c4.95-4.06,8.63-9.18,12-14.59c6.64-10.66,11.12-22.36,16.26-33.73c11.14-24.63,19.97-50.12,26.77-76.29
		c1.31-5.05,1.33-10.25-0.23-15.31c-1.99-6.42-7.91-11.08-13.89-11.15c-5.83-0.07-8.86,2.58-11.28,10.58
		c-7.57,25.07-16.42,49.65-27.76,73.28c-4.88,10.17-9.91,20.28-15.99,30.54C775.49,800.1,775.37,798.42,775.2,796.79z
		 M677.27,680.15c4.56-9.38,10.86-17.5,19.15-23.95c1.56-1.21,3.39-2.69,5.41-1.39c1.81,1.16,1.26,3.38,0.94,5.1
		c-1.79,9.49-3.76,18.94-5.59,28.42c-0.44,2.28-1.55,3.52-3.92,3.75c-2.64,0.26-5.26,0.72-7.89,1.1
		C675.52,693.02,672.92,689.1,677.27,680.15z M945.33,895.63c0-1.33-0.17-2.73-0.4-4.02c-1.75-9.84-4.62-19.25-15.53-22.43
		c-24.09-7.02-48.79-10.48-73.85-11.19c-21.84-0.62-43.56,0.85-65.21,3.86c-40.99,5.69-79.89,17.73-116.17,37.83
		c-5.47,3.03-7.2,6.6-6.38,12.81c1.73,13.1,8.66,17.68,21.09,13.74c35.95-11.41,72.39-20.42,110.14-23.41
		c23.61-1.87,47.17-1.37,70.73,0.82c20.23,1.88,40.27,5.16,60.33,8.26c7.37,1.14,12.3-2.2,14.22-9.38
		C944.89,900.28,945,897.93,945.33,895.63C945.21,895.62,945.45,895.64,945.33,895.63z M1216.97,619.15
		c-15.44,3.84-29.38,10.73-41.5,21.02c-8.28,7.04-15.42,15.18-20.96,24.6c-2.27,3.86-2.16,10.44,0.38,12.7
		c3.53,3.14,6.59,0.28,9.58-1.17c21.06-10.16,43.54-14.1,66.64-15.22c4.69-0.23,9.32-0.43,13.71-2.2
		c8.32-3.35,12.4-11.05,10.49-19.73c-3.15-14.37-12.03-21.38-27.61-21.32C1224.48,617.66,1220.71,618.23,1216.97,619.15z
		 M266.92,775.46c3.93-0.71,7.76-1.92,11.65-2.85c7.32-1.75,14.66-2.41,22.24-1.84c6.13,0.46,11.66,2.53,17.34,4.43
		c4.89,1.64,7.38,0.03,7.68-5.16c0.28-4.96-1.6-8.98-5.76-12.04c-14.35-10.55-29.83-17.98-47.93-19.51
		c-6.24-0.53-11.95,0.15-17.48,2.7c-6.41,2.95-10.26,7.83-10.39,15.94C245.39,769.84,252.91,777.98,266.92,775.46z M1167.21,706.43
		c-6.31,3.28-7.13,10.57-1.61,14.43c2.55,1.78,5.52,1.65,8.2,1.07c13.53-2.93,25.23,1.47,36.37,8.53c4.63,2.94,9.18,6.04,14.01,8.61
		c5.7,3.02,10.58,1.76,14.11-3c7.04-9.51,4.25-24.76-5.88-30.76c-8.12-4.81-16.76-8.15-25.53-7.48
		C1195.26,697.86,1175.1,702.33,1167.21,706.43z M850.29,621.96c-10.65,0.11-19.37,8.85-19.38,19.43
		c-0.01,11.44,8.47,19.82,19.94,19.7c11.36-0.12,19.28-8.28,19.21-19.79C870,630.16,861.5,621.84,850.29,621.96z M279.58,802.2
		c-10.51,6.47-7.82,22.62,1.35,27.65c3.01,1.65,6.38,3.1,9.23,0.21c7.91-8.01,17.44-12.98,27.93-16.74
		c6.16-2.21,6.52-6.9,1.59-11.46c-5.07-4.68-11.14-6.42-17.07-5.97C293.72,795.73,286.47,797.96,279.58,802.2z M644.19,936.4
		c5.94,4.3,12.13,2.55,15.21-4.06c2.6-5.57,1.12-15.01-3.27-19.64c-2.97-3.13-6.52-5.43-11.07-4.39c-4.89,1.12-6.72,5.08-7.76,9.48
		c-0.3,1.28-0.32,2.63-0.44,3.76C637.08,927.76,639.29,932.84,644.19,936.4z"/>
</g>
</svg>
